<svg xmlns="http://www.w3.org/2000/svg" width="13.898" height="13.678" viewBox="0 0 13.898 13.678">
  <g id="组_10" data-name="组 10" transform="translate(-731 -215.005)">
    <path id="路径_15" data-name="路径 15" d="M106.688,105.569l-.025.025a.8.8,0,0,1-1.136,0l-1.705-1.707-1.707,1.707a.8.8,0,0,1-1.156-1.116.246.246,0,0,1,.02-.02l2.272-2.272a.81.81,0,0,1,1.141,0l1.7,1.7,2.841-2.843a.8.8,0,0,1,1.136,1.136Z" transform="translate(633 117.9)" fill="#f1a556"/>
    <path id="路径_14" data-name="路径 14" d="M99.738,109.569H111.03a.855.855,0,1,1,0,1.709H98.868a.861.861,0,0,1-.868-.854V98.454a.868.868,0,0,1,1.736,0v11.114Z" transform="translate(633 117.405)" fill="#336de1"/>
  </g>
</svg>
