<?xml version="1.0" standalone="no"?><!DOCTYPE svg PUBLIC "-//W3C//DTD SVG 1.1//EN" "http://www.w3.org/Graphics/SVG/1.1/DTD/svg11.dtd"><svg t="1648176926121" class="icon" viewBox="0 0 1024 1024" version="1.1" xmlns="http://www.w3.org/2000/svg" p-id="3202" xmlns:xlink="http://www.w3.org/1999/xlink" width="200" height="200"><defs><style type="text/css">@font-face { font-family: feedback-iconfont; src: url("//at.alicdn.com/t/font_1031158_u69w8yhxdu.woff2?t=1630033759944") format("woff2"), url("//at.alicdn.com/t/font_1031158_u69w8yhxdu.woff?t=1630033759944") format("woff"), url("//at.alicdn.com/t/font_1031158_u69w8yhxdu.ttf?t=1630033759944") format("truetype"); }
</style></defs><path d="M533.333333 682.666667v192h-64v-192h64z m-175.317333-72.618667l45.269333 45.269333-135.765333 135.744-45.248-45.226666 135.744-135.786667z m286.634667 0l135.744 135.765333-45.226667 45.248-135.786667-135.744 45.269334-45.269333zM330.666667 480v64h-192v-64h192z m533.333333 0v64h-192v-64h192z m-128.853333-247.061333l45.248 45.226666-135.744 135.786667-45.269334-45.269333 135.765334-135.744z m-467.626667 0l135.765333 135.744-45.269333 45.269333-135.744-135.765333 45.226667-45.248zM533.333333 149.333333v192h-64V149.333333h64z" p-id="3203" fill="#ffffff"></path></svg>