<svg t="1648194146927" class="icon" viewBox="0 0 1024 1024" version="1.1" xmlns="http://www.w3.org/2000/svg" p-id="6384" width="96" height="96"><path d="M866 384h-34v-64c0-43-8.5-84.9-25.3-124.3-16.1-38.1-39.3-72.3-68.7-101.7-29.4-29.4-63.6-52.5-101.7-68.7C596.9 8.5 555 0 512 0s-84.9 8.5-124.3 25.3C349.6 41.4 315.4 64.6 286 94s-52.5 63.6-68.7 101.7C200.5 235.1 192 277 192 320v64h-34c-51.8 0-94 42.2-94 94v452c0 51.8 42.2 94 94 94h708c51.8 0 94-42.2 94-94V478c0-51.8-42.2-94-94-94z m-614-64c0-69.1 27.1-134.3 76.4-183.6S442.9 60 512 60s134.3 27.1 183.6 76.4C744.9 185.7 772 250.9 772 320v64H252v-64z m648 610c0 18.7-15.3 34-34 34H158c-18.7 0-34-15.3-34-34V478c0-18.7 15.3-34 34-34h708c18.7 0 34 15.3 34 34v452z" fill="#666666" p-id="6385"></path><path d="M512 608c-16.5 0-30 13.5-30 30v132c0 16.5 13.5 30 30 30s30-13.5 30-30V638c0-16.5-13.5-30-30-30z" fill="#666666" p-id="6386"></path></svg>
